<mxfile host="app.diagrams.net" agent="Mozilla/5.0 (Windows NT 10.0; Win64; x64; rv:109.0) Gecko/20100101 Firefox/127.0" version="24.7.12">
  <diagram name="Page-1" id="HVJjJYL0hNNSH8J0Meae">
    <mxGraphModel dx="818" dy="444" grid="1" gridSize="10" guides="1" tooltips="1" connect="1" arrows="1" fold="1" page="1" pageScale="1" pageWidth="850" pageHeight="1100" math="0" shadow="0">
      <root>
        <mxCell id="0" />
        <mxCell id="1" parent="0" />
        <mxCell id="e-FtNeugcCT7f2MW7TpE-20" value="Doctors" style="shape=umlActor;verticalLabelPosition=bottom;verticalAlign=top;html=1;outlineConnect=0;fillColor=#dae8fc;strokeColor=#6c8ebf;" parent="1" vertex="1">
          <mxGeometry x="30" y="498" width="30" height="60" as="geometry" />
        </mxCell>
        <mxCell id="e-FtNeugcCT7f2MW7TpE-25" value="" style="endArrow=none;html=1;rounded=0;exitX=0.5;exitY=0.5;exitDx=0;exitDy=0;exitPerimeter=0;entryX=0;entryY=0.5;entryDx=0;entryDy=0;" parent="1" source="e-FtNeugcCT7f2MW7TpE-20" target="e-FtNeugcCT7f2MW7TpE-3" edge="1">
          <mxGeometry width="50" height="50" relative="1" as="geometry">
            <mxPoint x="400" y="540" as="sourcePoint" />
            <mxPoint x="100.00000000000091" y="538" as="targetPoint" />
          </mxGeometry>
        </mxCell>
        <mxCell id="e-FtNeugcCT7f2MW7TpE-26" value="monitor funcion" style="swimlane;whiteSpace=wrap;html=1;" parent="1" vertex="1">
          <mxGeometry x="80" y="338" width="440" height="425" as="geometry" />
        </mxCell>
        <mxCell id="e-FtNeugcCT7f2MW7TpE-4" value="set up function" style="ellipse;whiteSpace=wrap;html=1;" parent="e-FtNeugcCT7f2MW7TpE-26" vertex="1">
          <mxGeometry x="160" y="82" width="100" height="50" as="geometry" />
        </mxCell>
        <mxCell id="e-FtNeugcCT7f2MW7TpE-9" value="" style="endArrow=open;html=1;rounded=0;exitX=0.7;exitY=0.094;exitDx=0;exitDy=0;entryX=-0.01;entryY=0.64;entryDx=0;entryDy=0;entryPerimeter=0;endFill=0;exitPerimeter=0;" parent="e-FtNeugcCT7f2MW7TpE-26" source="e-FtNeugcCT7f2MW7TpE-3" target="e-FtNeugcCT7f2MW7TpE-4" edge="1">
          <mxGeometry width="50" height="50" relative="1" as="geometry">
            <mxPoint x="123.91982038379115" y="163.26969746446605" as="sourcePoint" />
            <mxPoint x="298.75" y="293" as="targetPoint" />
          </mxGeometry>
        </mxCell>
        <mxCell id="e-FtNeugcCT7f2MW7TpE-10" value="&amp;lt;include&amp;gt;" style="edgeLabel;html=1;align=center;verticalAlign=middle;resizable=0;points=[];" parent="e-FtNeugcCT7f2MW7TpE-9" vertex="1" connectable="0">
          <mxGeometry x="-0.1257" y="-5" relative="1" as="geometry">
            <mxPoint y="-8" as="offset" />
          </mxGeometry>
        </mxCell>
        <mxCell id="e-FtNeugcCT7f2MW7TpE-3" value="{abstract}manage monitoring function" style="ellipse;whiteSpace=wrap;html=1;" parent="e-FtNeugcCT7f2MW7TpE-26" vertex="1">
          <mxGeometry x="20" y="160" width="110" height="75" as="geometry" />
        </mxCell>
        <mxCell id="e-FtNeugcCT7f2MW7TpE-5" value="delete function" style="ellipse;whiteSpace=wrap;html=1;" parent="e-FtNeugcCT7f2MW7TpE-26" vertex="1">
          <mxGeometry x="240" y="225" width="100" height="50" as="geometry" />
        </mxCell>
        <mxCell id="e-FtNeugcCT7f2MW7TpE-11" value="" style="endArrow=open;html=1;rounded=0;exitX=1;exitY=1;exitDx=0;exitDy=0;entryX=0;entryY=0.5;entryDx=0;entryDy=0;endFill=0;" parent="e-FtNeugcCT7f2MW7TpE-26" source="e-FtNeugcCT7f2MW7TpE-3" target="e-FtNeugcCT7f2MW7TpE-5" edge="1">
          <mxGeometry width="50" height="50" relative="1" as="geometry">
            <mxPoint x="123.91982038379115" y="212.73030253553395" as="sourcePoint" />
            <mxPoint x="267.75" y="355" as="targetPoint" />
          </mxGeometry>
        </mxCell>
        <mxCell id="e-FtNeugcCT7f2MW7TpE-12" value="&amp;lt;include&amp;gt;" style="edgeLabel;html=1;align=center;verticalAlign=middle;resizable=0;points=[];" parent="e-FtNeugcCT7f2MW7TpE-11" vertex="1" connectable="0">
          <mxGeometry x="-0.1257" y="-5" relative="1" as="geometry">
            <mxPoint y="-8" as="offset" />
          </mxGeometry>
        </mxCell>
        <mxCell id="e-FtNeugcCT7f2MW7TpE-2" value="modify function" style="ellipse;whiteSpace=wrap;html=1;" parent="e-FtNeugcCT7f2MW7TpE-26" vertex="1">
          <mxGeometry x="220" y="150" width="100" height="50" as="geometry" />
        </mxCell>
        <mxCell id="e-FtNeugcCT7f2MW7TpE-13" value="" style="endArrow=open;html=1;rounded=0;entryX=0;entryY=0.5;entryDx=0;entryDy=0;endFill=0;exitX=0.894;exitY=0.254;exitDx=0;exitDy=0;exitPerimeter=0;" parent="e-FtNeugcCT7f2MW7TpE-26" source="e-FtNeugcCT7f2MW7TpE-3" target="e-FtNeugcCT7f2MW7TpE-2" edge="1">
          <mxGeometry width="50" height="50" relative="1" as="geometry">
            <mxPoint x="139.9999999999991" y="188" as="sourcePoint" />
            <mxPoint x="317.75" y="325" as="targetPoint" />
            <Array as="points" />
          </mxGeometry>
        </mxCell>
        <mxCell id="e-FtNeugcCT7f2MW7TpE-14" value="&amp;lt;include&amp;gt;" style="edgeLabel;html=1;align=center;verticalAlign=middle;resizable=0;points=[];" parent="e-FtNeugcCT7f2MW7TpE-13" vertex="1" connectable="0">
          <mxGeometry x="-0.1257" y="-5" relative="1" as="geometry">
            <mxPoint y="-8" as="offset" />
          </mxGeometry>
        </mxCell>
        <mxCell id="e-FtNeugcCT7f2MW7TpE-7" value="email notification to doctor" style="ellipse;whiteSpace=wrap;html=1;" parent="e-FtNeugcCT7f2MW7TpE-26" vertex="1">
          <mxGeometry x="270" y="312" width="90" height="68" as="geometry" />
        </mxCell>
        <mxCell id="e-FtNeugcCT7f2MW7TpE-16" value="" style="endArrow=none;html=1;rounded=0;entryX=0;entryY=0.5;entryDx=0;entryDy=0;strokeColor=default;startArrow=open;startFill=0;" parent="e-FtNeugcCT7f2MW7TpE-26" target="e-FtNeugcCT7f2MW7TpE-7" edge="1">
          <mxGeometry width="50" height="50" relative="1" as="geometry">
            <mxPoint x="140" y="332" as="sourcePoint" />
            <mxPoint x="439.75" y="563" as="targetPoint" />
          </mxGeometry>
        </mxCell>
        <mxCell id="e-FtNeugcCT7f2MW7TpE-17" value="&amp;lt;include&amp;gt;" style="edgeLabel;html=1;align=center;verticalAlign=middle;resizable=0;points=[];" parent="e-FtNeugcCT7f2MW7TpE-16" vertex="1" connectable="0">
          <mxGeometry x="-0.209" y="-3" relative="1" as="geometry">
            <mxPoint x="19" y="-8" as="offset" />
          </mxGeometry>
        </mxCell>
        <mxCell id="0ZJraC78obbFXrfT07ab-1" value="function saw abnormal result" style="ellipse;whiteSpace=wrap;html=1;" vertex="1" parent="e-FtNeugcCT7f2MW7TpE-26">
          <mxGeometry x="30" y="290" width="110" height="70" as="geometry" />
        </mxCell>
        <mxCell id="e-FtNeugcCT7f2MW7TpE-29" value="System" style="shape=umlActor;verticalLabelPosition=bottom;verticalAlign=top;html=1;outlineConnect=0;fillColor=#dae8fc;strokeColor=#6c8ebf;" parent="1" vertex="1">
          <mxGeometry x="530" y="508" width="30" height="60" as="geometry" />
        </mxCell>
        <mxCell id="e-FtNeugcCT7f2MW7TpE-30" value="" style="endArrow=none;html=1;rounded=0;entryX=0.5;entryY=0.5;entryDx=0;entryDy=0;entryPerimeter=0;exitX=1;exitY=0;exitDx=0;exitDy=0;" parent="1" source="e-FtNeugcCT7f2MW7TpE-7" target="e-FtNeugcCT7f2MW7TpE-29" edge="1">
          <mxGeometry width="50" height="50" relative="1" as="geometry">
            <mxPoint x="400" y="610" as="sourcePoint" />
            <mxPoint x="450" y="560" as="targetPoint" />
          </mxGeometry>
        </mxCell>
      </root>
    </mxGraphModel>
  </diagram>
</mxfile>
